HIERARCHY
ROOT Hips
{
	OFFSET 0.000000 0.000000 0.000000
	CHANNELS 6 Xposition Yposition Zposition Xrotation Yrotation Zrotation
	JOINT LeftUpLeg_virtual
	{
		OFFSET 0.000000 0.000000 0.000000
		CHANNELS 3 Xrotation Yrotation Zrotation
		JOINT LeftUpLeg
		{
			OFFSET 13.026900 -6.336304 -1.092800
			CHANNELS 3 Xrotation Yrotation Zrotation
			JOINT LeftLeg
			{
				OFFSET 0.524474 -46.096886 9.782700
				CHANNELS 3 Xrotation Yrotation Zrotation
				JOINT LeftFoot
				{
					OFFSET -0.524474 -53.427422 -12.948200
					CHANNELS 3 Xrotation Yrotation Zrotation
					JOINT LeftToeBase
					{
						OFFSET 0.192200 -14.009700 16.364100
						CHANNELS 3 Xrotation Yrotation Zrotation
						JOINT LeftToe_End
						{
							OFFSET -1.784700 -0.561700 9.474800
							CHANNELS 3 Xrotation Yrotation Zrotation
							End Site
							{
								OFFSET 0 0 0
							}
						}
					}
				}
			}
		}
	}
	JOINT RightUpLeg_virtual
	{
		OFFSET 0.000000 0.000000 0.000000
		CHANNELS 3 Xrotation Yrotation Zrotation
		JOINT RightUpLeg
		{
			OFFSET -12.883000 -6.336304 -1.092800
			CHANNELS 3 Xrotation Yrotation Zrotation
			JOINT RightLeg
			{
				OFFSET -0.524587 -46.096825 9.782800
				CHANNELS 3 Xrotation Yrotation Zrotation
				JOINT RightFoot
				{
					OFFSET 0.524587 -53.427383 -12.948300
					CHANNELS 3 Xrotation Yrotation Zrotation
					JOINT RightToeBase
					{
						OFFSET -0.192200 -14.009700 16.364100
						CHANNELS 3 Xrotation Yrotation Zrotation
						JOINT RightToe_End
						{
							OFFSET 1.784700 -0.561700 9.474800
							CHANNELS 3 Xrotation Yrotation Zrotation
							End Site
							{
								OFFSET 0 0 0
							}
						}
					}
				}
			}
		}
	}
	JOINT Spine_virtual
	{
		OFFSET 0.000000 0.000000 0.000000
		CHANNELS 3 Xrotation Yrotation Zrotation
		JOINT Spine
		{
			OFFSET 0.072000 7.257294 -0.789700
			CHANNELS 3 Xrotation Yrotation Zrotation
			JOINT Spine1
			{
				OFFSET 0.000000 12.508769 -0.658067
				CHANNELS 3 Xrotation Yrotation Zrotation
				JOINT Spine1_split
				{
					OFFSET 0.000000 12.508769 -0.658067
					CHANNELS 3 Xrotation Yrotation Zrotation
					JOINT Spine2
					{
						OFFSET 0.000000 12.508769 -0.658067
						CHANNELS 3 Xrotation Yrotation Zrotation
						JOINT Neck_virtual
						{
							OFFSET 0.000000 0.000000 0.000000
							CHANNELS 3 Xrotation Yrotation Zrotation
							JOINT Neck
							{
								OFFSET 0.000000 14.033295 7.520400
								CHANNELS 3 Xrotation Yrotation Zrotation
								JOINT Head
								{
									OFFSET 0.000000 8.198502 5.703100
									CHANNELS 3 Xrotation Yrotation Zrotation
									JOINT HeadTop_End
									{
										OFFSET 0.000000 17.760803 13.332701
										CHANNELS 3 Xrotation Yrotation Zrotation
										End Site
										{
											OFFSET 0 0 0
										}
									}
								}
							}
						}
						JOINT LeftShoulder_virtual
						{
							OFFSET 0.000000 0.000000 0.000000
							CHANNELS 3 Xrotation Yrotation Zrotation
							JOINT LeftShoulder
							{
								OFFSET 6.292450 5.785301 -0.669000
								CHANNELS 3 Xrotation Yrotation Zrotation
								JOINT LeftShoulder_split
								{
									OFFSET 6.292450 5.785301 -0.669000
									CHANNELS 3 Xrotation Yrotation Zrotation
									JOINT LeftArm
									{
										OFFSET 13.907140 -6.093903 1.965100
										CHANNELS 3 Xrotation Yrotation Zrotation
										JOINT LeftForeArm
										{
											OFFSET 34.140198 0.000000 0.000000
											CHANNELS 3 Xrotation Yrotation Zrotation
											JOINT LeftHand
											{
												OFFSET 40.960209 0.000000 0.000000
												CHANNELS 3 Xrotation Yrotation Zrotation
												End Site
												{
													OFFSET 0 0 0
												}
											}
										}
									}
								}
							}
						}
						JOINT RightShoulder_virtual
						{
							OFFSET 0.000000 0.000000 0.000000
							CHANNELS 3 Xrotation Yrotation Zrotation
							JOINT RightShoulder
							{
								OFFSET -6.292450 5.785301 -0.669000
								CHANNELS 3 Xrotation Yrotation Zrotation
								JOINT RightShoulder_split
								{
									OFFSET -6.292450 5.785301 -0.669000
									CHANNELS 3 Xrotation Yrotation Zrotation
									JOINT RightArm
									{
										OFFSET -13.907140 -6.093903 1.965100
										CHANNELS 3 Xrotation Yrotation Zrotation
										JOINT RightForeArm
										{
											OFFSET -34.140198 0.000000 0.000000
											CHANNELS 3 Xrotation Yrotation Zrotation
											JOINT RightHand
											{
												OFFSET -40.960209 0.000000 0.000000
												CHANNELS 3 Xrotation Yrotation Zrotation
												End Site
												{
													OFFSET 0 0 0
												}
											}
										}
									}
								}
							}
						}
					}
				}
			}
		}
	}
}
MOTION
Frames: 5
Frame Time: 0.03333333
2.172527 92.286270 3.109661 0.000000 0.000000 0.000000 26.597417 -57.853704 26.782639 -58.521785 22.707657 32.258973 46.251261 -17.690275 -0.754400 -3.273549 3.652545 -11.385638 -4.057265 -4.579850 0.757413 0.000000 0.000000 0.000000 21.265661 -53.170752 23.285182 -38.225639 6.199821 -31.101536 53.911899 2.208855 -4.206255 -26.650966 5.328466 24.501866 -4.640364 1.727013 -0.213161 0.000000 0.000000 0.000000 10.322134 -41.690645 15.508202 4.151064 10.869402 0.746935 6.423574 9.070583 -4.418390 1.948454 -2.859712 2.382601 0.000000 0.000000 0.000000 -9.890369 8.882927 -2.868670 -21.425001 -9.625779 2.762604 3.989204 6.976971 -7.943147 0.000000 0.000000 0.000000 -7.703905 8.169805 -0.741730 1.966389 -24.937968 3.930251 -2.073265 1.724981 -3.932792 3.930799 20.234102 -60.365799 -35.247980 -59.677180 -34.233174 0.000000 0.000000 0.000000 -9.497471 8.598231 -1.971806 -0.875092 6.509938 2.826154 8.462885 4.414119 11.360196 14.096416 -9.563300 43.703317 -40.119312 54.342235 37.607308 0.000000 0.000000 0.000000 
0.792860 91.973434 2.672062 0.000000 0.000000 0.000000 28.926893 -57.898981 28.424305 -58.608125 22.898313 32.029038 46.152247 -18.822485 -0.057366 -3.605944 2.874570 -11.978220 -4.149357 -4.705465 1.243428 0.000000 0.000000 0.000000 23.483623 -52.517229 24.612641 -39.261618 6.614013 -30.356335 55.862908 2.825153 -4.804121 -26.225164 4.671937 26.435743 -5.792882 1.620624 -0.218880 0.000000 0.000000 0.000000 12.823451 -42.503700 17.696926 4.655506 9.281707 1.033682 7.123627 7.570192 -4.048267 4.090214 -5.164332 3.865139 0.000000 0.000000 0.000000 -9.079915 7.719943 -2.466480 -21.258448 -8.328097 3.599779 3.359457 7.173910 -6.042189 0.000000 0.000000 0.000000 -7.335641 6.814726 -0.762117 1.750897 -24.283590 3.309849 -0.939187 -3.311163 -2.748061 8.115636 23.371410 -58.647617 -29.690822 -54.873631 -28.632884 0.000000 0.000000 0.000000 -9.616754 7.332509 -1.684880 -0.653241 6.649732 4.078726 6.731431 2.466384 10.900041 12.680443 -12.638077 44.844095 -48.346968 59.539176 45.293102 0.000000 0.000000 0.000000 
-1.809875 91.733765 2.520107 0.000000 0.000000 0.000000 32.066775 -56.916557 31.048732 -58.868239 22.746097 31.427439 45.302094 -19.573314 0.462993 -4.224568 2.879175 -12.822059 -4.602634 -4.803258 1.698162 0.000000 0.000000 0.000000 27.054429 -51.434138 27.415539 -40.590312 7.245715 -29.529592 57.472401 2.850770 -5.498931 -27.203214 2.871407 27.104844 -4.302112 1.552046 0.123147 0.000000 0.000000 0.000000 17.631319 -42.814535 21.617924 5.630715 6.376941 1.623836 8.349909 4.165097 -3.663002 4.006478 -4.586160 4.307583 0.000000 0.000000 0.000000 -7.767765 4.642983 -2.293411 -20.188595 -6.897592 5.401539 1.088967 7.168742 -2.459955 0.000000 0.000000 0.000000 -6.175068 3.640595 -1.222184 1.967736 -22.650574 3.337229 0.861316 -8.944227 -0.517284 10.738089 27.576428 -56.033100 -21.613860 -48.567494 -20.776706 0.000000 0.000000 0.000000 -8.849751 4.051668 -1.946078 -0.705598 6.168847 6.109052 6.984016 2.368142 11.213333 8.550206 -15.294832 43.726892 -72.344763 65.853610 69.345210 0.000000 0.000000 0.000000 
-5.051946 91.659462 2.667953 0.000000 0.000000 0.000000 35.394423 -54.964991 34.063694 -58.919568 22.436864 30.429941 43.737967 -19.642830 0.674987 -4.857435 3.684574 -13.437082 -5.401481 -4.842874 1.937798 0.000000 0.000000 0.000000 30.928340 -49.796181 30.918255 -42.234116 7.914814 -28.826216 58.482832 2.473212 -6.263454 -28.933829 0.363144 27.120753 -1.026067 1.595508 0.643951 0.000000 0.000000 0.000000 23.885870 -42.144634 26.350933 7.195352 2.696112 2.283846 10.129631 -0.314448 -3.267233 1.976045 -2.555789 3.793407 0.000000 0.000000 0.000000 -5.939085 0.345702 -2.369254 -18.482316 -5.282423 7.133622 -2.459047 6.369341 2.023795 0.000000 0.000000 0.000000 -4.103982 -0.674608 -1.897450 2.652842 -20.735022 4.002252 2.027039 -12.958308 1.128336 9.734329 31.840078 -51.436208 -13.875184 -41.233589 -13.323961 0.000000 0.000000 0.000000 -6.988350 -0.396087 -2.461797 -0.843368 5.597117 8.946405 8.503878 3.424198 11.534490 3.069629 -16.363383 40.027951 -99.735338 66.233840 97.334335 0.000000 0.000000 0.000000 
-8.425398 91.839272 3.132587 0.000000 0.000000 0.000000 38.296372 -52.232485 36.807893 -58.680170 22.175343 29.243052 41.805699 -19.237105 0.686202 -5.373522 4.990891 -13.790627 -6.035274 -4.826044 1.853428 0.000000 0.000000 0.000000 34.550006 -47.448187 34.423549 -43.761445 8.424141 -28.442359 58.567117 2.226440 -7.207280 -30.894544 -2.169071 27.518544 1.421577 1.736507 1.138384 0.000000 0.000000 0.000000 30.019354 -40.784706 30.849096 9.300654 -1.071223 2.855255 12.669942 -4.784180 -2.830217 0.481319 -0.930123 2.297953 0.000000 0.000000 0.000000 -3.530842 -4.152263 -2.595674 -16.307669 -3.610044 7.914500 -6.310315 4.684469 6.227371 0.000000 0.000000 0.000000 -1.108301 -5.086112 -2.529355 3.653577 -19.421448 4.990976 3.206851 -14.679294 2.600775 3.923656 34.536824 -44.435957 -7.391687 -33.229994 -7.272428 0.000000 0.000000 0.000000 -3.886606 -4.862956 -2.926668 -0.960091 5.355893 12.494765 10.294263 4.800665 11.372730 -2.524459 -15.397456 34.820926 -110.440033 64.660718 109.002122 0.000000 0.000000 0.000000 
